/* XPM */
static char * blinka1_egen_12x12_xpm[] = {
"12 12 3 1",
" 	c None",
".	c #00E1E1",
"+	c #70FFFF",
" .......... ",
"..++++++++..",
".++++++++++.",
".++++++++++.",
".++++++++++.",
".++++++++++.",
".++++++++++.",
"..++++++++..",
" ....+++... ",
"    ..++.   ",
"     ..+.   ",
"      ...   "};
